<svg id="Layer_1" data-name="Layer 1" xmlns="http://www.w3.org/2000/svg" xmlns:xlink="http://www.w3.org/1999/xlink" viewBox="0 0 512 512"><defs><clipPath id="clip-path"><rect y="55.67" width="512" height="298.66" fill="none"/></clipPath></defs><title>argentina-flat</title><g clip-path="url(#clip-path)"><rect y="155.21" width="512" height="99.56" fill="#fff"/><rect y="55.67" width="512" height="99.54" fill="#6ca8da"/><rect y="254.77" width="512" height="99.56" fill="#6ca8da"/><g clip-path="url(#clip-path)"><path d="M254,205l1.54,40.73s0,.76.52.76.49-.76.49-.76L258.05,205Z" fill="#ffbd46"/><path d="M256,246.6c-.51,0-.64-.58-.64-.89L253.83,205h.25l1.54,40.73s0,.64.39.64.37-.63.37-.63L257.93,205l-1.29,40.74c0,.3-.13.88-.62.88Z" fill="#8b3315"/><polygon points="254.98 204.98 256.01 232.94 257.02 204.98 254.98 204.98" fill="#8b3315"/><path d="M252.17,218.15c-2.35,5.13-.35,9.31-2.68,13.78s-.88,8.16-1,10.2-1.83,2.63-1.4,3.12,2.18-.48,2.86-3.2-.94-4.3,1.85-9.78.58-8,3.4-12.87Z" fill="#ffbd46"/><path d="M247.49,245.47l-.55-.14c-.25-.29,0-.59.31-.93a3.66,3.66,0,0,0,1.06-2.28,11.43,11.43,0,0,0-.11-2,13.22,13.22,0,0,1,1.18-8.27,14.61,14.61,0,0,0,1.32-6.59,17.59,17.59,0,0,1,1.36-7.18l.23.1a17.49,17.49,0,0,0-1.34,7.09,14.71,14.71,0,0,1-1.34,6.7,13,13,0,0,0-1.15,8.13,11.41,11.41,0,0,1,.12,2,3.91,3.91,0,0,1-1.13,2.43c-.31.35-.4.48-.3.6,1-.11,2.13-1.09,2.64-3.15a8.51,8.51,0,0,0,.16-2.54,12.49,12.49,0,0,1,1.7-7.27,15.1,15.1,0,0,0,1.68-6.58,13,13,0,0,1,1.72-6.29,16.12,16.12,0,0,0-1.47,6.31,15.43,15.43,0,0,1-1.71,6.68,12.29,12.29,0,0,0-1.68,7.14,8.63,8.63,0,0,1-.16,2.61c-.5,2-1.63,3.18-2.46,3.38l-.07,0Z" fill="#8b3315"/><path d="M252.8,219.44c-1.81,5.11.1,8.5-2.34,12.81,2.71-3.09.93-7.09,3.29-12.35Z" fill="#8b3315"/><path d="M258.05,205l-1.54-40.71s0-.76-.49-.76-.52.76-.52.76L254,205Z" fill="#ffbd46"/><path d="M257.93,205l-1.54-40.71s0-.64-.37-.64-.39.63-.39.63L254.09,205l1.29-40.72c0-.3.13-.88.64-.88s.62.58.62.88l1.54,40.7Z" fill="#8b3315"/><polygon points="257.02 204.98 256.01 177.04 254.98 204.98 257.02 204.98" fill="#8b3315"/><path d="M259.86,191.84c2.33-5.11.33-9.31,2.65-13.78s.88-8.15,1.05-10.21,1.83-2.63,1.4-3.09-2.18.47-2.86,3.19.95,4.3-1.85,9.78-.58,8-3.4,12.85Z" fill="#ffbd46"/><path d="M260,191.89l-.23-.1a17.51,17.51,0,0,0,1.32-7.07A14.62,14.62,0,0,1,262.4,178a13,13,0,0,0,1.15-8.12,12.29,12.29,0,0,1-.11-2,3.91,3.91,0,0,1,1.14-2.43c.32-.36.39-.47.3-.57-1,.08-2.13,1.05-2.65,3.13a8.34,8.34,0,0,0-.15,2.54,12.52,12.52,0,0,1-1.71,7.27,15.1,15.1,0,0,0-1.68,6.58,13,13,0,0,1-1.72,6.28,16.06,16.06,0,0,0,1.47-6.3,15.42,15.42,0,0,1,1.71-6.67,12.25,12.25,0,0,0,1.68-7.15,8.62,8.62,0,0,1,.16-2.61c.55-2.19,1.77-3.22,2.46-3.38l.07,0,.54.16c.25.27,0,.56-.3.9a3.67,3.67,0,0,0-1.07,2.28,11.15,11.15,0,0,0,.11,2,13.27,13.27,0,0,1-1.18,8.26,14.58,14.58,0,0,0-1.31,6.61,17.53,17.53,0,0,1-1.33,7.16Z" fill="#8b3315"/><path d="M259.21,190.53c1.83-5.1-.11-8.49,2.34-12.81-2.72,3.1-.93,7.11-3.29,12.36Z" fill="#8b3315"/><path d="M256,202.95l-40.72,1.53s-.77,0-.77.5.77.52.77.52L256,207Z" fill="#ffbd46"/><path d="M256,206.91l-40.73-1.28c-.3,0-.89-.14-.89-.65s.59-.63.9-.63L256,202.82v.25L215.3,204.6s-.65,0-.65.38.64.39.64.39L256,206.91Z" fill="#8b3315"/><polygon points="256.01 203.97 228.05 204.98 256.01 206.01 256.01 203.97" fill="#8b3315"/><path d="M242.85,201.14c-5.13-2.35-9.3-.32-13.76-2.67s-8.17-.87-10.23-1-2.61-1.84-3.09-1.42.47,2.18,3.19,2.87,4.3-.94,9.77,1.87,8,.57,12.86,3.38Z" fill="#ffbd46"/><path d="M241.65,204a16.13,16.13,0,0,0-6.31-1.46,15.48,15.48,0,0,1-6.67-1.7,12.27,12.27,0,0,0-7.15-1.7,8.61,8.61,0,0,1-2.6-.16c-2-.51-3.17-1.63-3.37-2.46l0-.07.14-.55c.29-.27.58,0,.91.31a3.74,3.74,0,0,0,2.27,1.08,10.55,10.55,0,0,0,2-.12,13.36,13.36,0,0,1,8.29,1.16,14.29,14.29,0,0,0,6.59,1.32A17.52,17.52,0,0,1,242.9,201l-.11.23a17.24,17.24,0,0,0-7.07-1.32,14.53,14.53,0,0,1-6.7-1.35,13.15,13.15,0,0,0-8.15-1.14,13.93,13.93,0,0,1-2,.12,3.93,3.93,0,0,1-2.41-1.14c-.34-.3-.49-.4-.58-.31.1,1,1.08,2.13,3.14,2.65a8.4,8.4,0,0,0,2.53.15,12.5,12.5,0,0,1,7.27,1.72,15.21,15.21,0,0,0,6.58,1.67,13,13,0,0,1,6.29,1.71Z" fill="#8b3315"/><path d="M241.55,201.8c-5.11-1.82-8.48.09-12.8-2.34,3.08,2.71,7.1.91,12.35,3.29Z" fill="#8b3315"/><path d="M256,207l40.7-1.53s.76,0,.76-.52-.76-.5-.76-.5L256,202.95Z" fill="#ffbd46"/><path d="M256,207.16v-.25l40.7-1.53s.64,0,.64-.39-.62-.38-.63-.38L256,203.08l40.72,1.28c.3,0,.88.13.88.63s-.58.65-.88.65L256,207.16Z" fill="#8b3315"/><polygon points="256.01 206.01 283.96 204.98 256.01 203.97 256.01 206.01" fill="#8b3315"/><path d="M269.17,208.83c5.12,2.35,9.3.34,13.79,2.68s8.14.87,10.2,1,2.61,1.83,3.08,1.4-.47-2.18-3.19-2.86-4.3,1-9.77-1.85-8-.58-12.86-3.4Z" fill="#ffbd46"/><path d="M296.08,214.16c-.21,0-.43-.19-.67-.4a3.67,3.67,0,0,0-2.27-1.07,11.55,11.55,0,0,0-2,.12,13.19,13.19,0,0,1-8.25-1.17,14.46,14.46,0,0,0-6.62-1.33,17.55,17.55,0,0,1-7.16-1.35l.11-.23a17.34,17.34,0,0,0,7.06,1.33,14.65,14.65,0,0,1,6.73,1.36,13,13,0,0,0,8.1,1.14,12,12,0,0,1,2-.12,3.92,3.92,0,0,1,2.42,1.13c.37.33.48.37.57.3-.09-1-1.06-2.12-3.13-2.65a8.77,8.77,0,0,0-2.54-.16c-1.7.1-3.62.17-7.27-1.71a15.3,15.3,0,0,0-6.57-1.68,12.94,12.94,0,0,1-6.29-1.72,16.11,16.11,0,0,0,6.31,1.47,15.52,15.52,0,0,1,6.67,1.71,12.19,12.19,0,0,0,7.13,1.68,8.25,8.25,0,0,1,2.61.17c2.18.55,3.21,1.77,3.37,2.46l0,.08-.15.54a.35.35,0,0,1-.24.1Z" fill="#8b3315"/><path d="M270.46,208.19c5.1,1.83,8.48-.08,12.82,2.35-3.11-2.71-7.12-.93-12.36-3.29Z" fill="#8b3315"/><path d="M254.55,203.55l-27.7,29.86s-.53.55-.18.9.91-.18.91-.18l29.88-27.69Z" fill="#ffbd46"/><path d="M227,234.57c-.75-.51-.43-1-.22-1.24l27.7-29.86.18.17-27.7,29.86s-.45.47-.18.72.73-.17.73-.17l29.88-27.7-29.71,27.87a1.14,1.14,0,0,1-.68.34Z" fill="#8b3315"/><polygon points="255.27 204.27 236.23 224.75 256.73 205.72 255.27 204.27" fill="#8b3315"/><path d="M244,211.57c-5.27,2-6.81,6.35-11.62,7.85s-6.41,5.14-8,6.49-3.16.56-3.19,1.19,1.86,1.21,4.3-.24,2.36-3.71,8.23-5.61,6-5.21,11.49-6.67Z" fill="#ffbd46"/><path d="M222.61,227.9a2.35,2.35,0,0,1-1.17-.26l-.36-.54c0-.38.41-.4.86-.43a3.69,3.69,0,0,0,2.37-.85,11.24,11.24,0,0,0,1.3-1.46,13.38,13.38,0,0,1,6.71-5,14.44,14.44,0,0,0,5.61-3.74,17.45,17.45,0,0,1,6-4.11l.08.23a17.4,17.4,0,0,0-5.92,4.06,14.56,14.56,0,0,1-5.71,3.8,13.14,13.14,0,0,0-6.59,5,12.07,12.07,0,0,1-1.33,1.5,3.93,3.93,0,0,1-2.52.91c-.45,0-.62.05-.62.19.8.64,2.28.73,4.11-.35a8.33,8.33,0,0,0,1.91-1.68c1.14-1.25,2.44-2.67,6.35-3.93a15.14,15.14,0,0,0,5.82-3.45,13,13,0,0,1,5.67-3.22,16,16,0,0,0-5.5,3.41,15.41,15.41,0,0,1-5.92,3.5,12.23,12.23,0,0,0-6.23,3.86,8.56,8.56,0,0,1-2,1.73,6,6,0,0,1-3,.92Z" fill="#8b3315"/><path d="M243.52,213c-4.89,2.32-5.94,6.07-10.72,7.4,4.12-.28,5.68-4.37,11.07-6.4Z" fill="#8b3315"/><path d="M257.46,206.45l27.69-29.88s.53-.53.19-.9-.91.17-.91.17l-29.88,27.72Z" fill="#ffbd46"/><path d="M257.55,206.53l-.18-.17,27.69-29.88s.44-.46.19-.73-.73.17-.73.17l-29.89,27.72,29.71-27.9c.2-.21.71-.53,1.08-.16s0,.86-.19,1.08l-27.69,29.88Z" fill="#8b3315"/><polygon points="256.73 205.72 275.77 185.22 255.27 204.27 256.73 205.72" fill="#8b3315"/><path d="M268,198.41c5.26-2,6.8-6.35,11.62-7.85s6.4-5.15,8-6.49,3.14-.55,3.19-1.19-1.87-1.21-4.3.24-2.37,3.71-8.23,5.6-6,5.21-11.48,6.69Z" fill="#ffbd46"/><path d="M268.08,198.53l-.08-.23a17.36,17.36,0,0,0,5.91-4.05,14.63,14.63,0,0,1,5.72-3.8,13.07,13.07,0,0,0,6.56-4.94,12,12,0,0,1,1.36-1.52,3.91,3.91,0,0,1,2.51-.9c.46,0,.63-.05.63-.2-.79-.63-2.29-.73-4.11.36a8.24,8.24,0,0,0-1.9,1.68,12.51,12.51,0,0,1-6.36,3.93,15.17,15.17,0,0,0-5.83,3.45,13,13,0,0,1-5.66,3.23,16.14,16.14,0,0,0,5.49-3.42,15.37,15.37,0,0,1,5.92-3.5,12.23,12.23,0,0,0,6.24-3.86,8.71,8.71,0,0,1,2-1.73c1.8-1.07,3.39-1.1,4.13-.66l.36.53c0,.38-.41.41-.87.44a3.68,3.68,0,0,0-2.36.84,11.36,11.36,0,0,0-1.33,1.49,13.28,13.28,0,0,1-6.68,5,14.34,14.34,0,0,0-5.61,3.74,17.59,17.59,0,0,1-6,4.11Z" fill="#8b3315"/><path d="M268.48,197c4.9-2.32,6-6.07,10.72-7.39-4.11.27-5.68,4.36-11.07,6.39Z" fill="#8b3315"/><path d="M257.46,203.55l-29.88-27.72s-.53-.53-.91-.17.18.9.18.9l27.7,29.88Z" fill="#ffbd46"/><path d="M254.64,206.36l-27.88-29.71c-.22-.21-.53-.71-.18-1.07s.87,0,1.09.16l29.87,27.72-.17.19-29.88-27.72s-.46-.45-.73-.17.17.72.18.72l27.7,29.89Z" fill="#8b3315"/><polygon points="256.73 204.27 236.23 185.22 255.27 205.72 256.73 204.27" fill="#8b3315"/><path d="M249.43,193c-2-5.29-6.36-6.83-7.86-11.65s-5.14-6.38-6.48-8-.56-3.15-1.2-3.19-1.21,1.88.22,4.29,3.71,2.36,5.6,8.23,5.22,6,6.68,11.49Z" fill="#ffbd46"/><path d="M246.52,194.16a16.07,16.07,0,0,0-3.42-5.51,15.51,15.51,0,0,1-3.5-5.91c-1.24-3.85-2.63-5.12-3.86-6.24a8.54,8.54,0,0,1-1.73-2c-1.15-1.92-1-3.52-.64-4.13l.54-.35c.38,0,.4.41.43.87a3.72,3.72,0,0,0,.85,2.37,11.21,11.21,0,0,0,1.5,1.33,13.2,13.2,0,0,1,5,6.67,14.4,14.4,0,0,0,3.74,5.6,17.65,17.65,0,0,1,4.12,6l-.24.09a17.36,17.36,0,0,0-4.07-6,14.62,14.62,0,0,1-3.79-5.7,13,13,0,0,0-4.93-6.55,11.4,11.4,0,0,1-1.53-1.36,3.91,3.91,0,0,1-.91-2.51c0-.45-.06-.62-.2-.63-.65.78-.76,2.27.34,4.1a8.29,8.29,0,0,0,1.68,1.9c1.26,1.15,2.68,2.44,3.93,6.35a15.23,15.23,0,0,0,3.46,5.83,13,13,0,0,1,3.23,5.67Z" fill="#8b3315"/><path d="M248.05,192.51c-2.33-4.91-6.07-5.94-7.41-10.72.26,4.1,4.38,5.68,6.42,11.07Z" fill="#8b3315"/><path d="M254.55,206.45l29.88,27.69s.53.55.91.18-.19-.9-.19-.9l-27.69-29.86Z" fill="#ffbd46"/><path d="M285,234.45a1,1,0,0,1-.7-.23l-29.87-27.68.17-.19L284.52,234s.45.48.73.18-.19-.72-.19-.72l-27.69-29.87,27.87,29.7c.23.23.53.73.19,1.07a1.77,1.77,0,0,1-.39,0Z" fill="#8b3315"/><polygon points="255.27 205.72 275.77 224.75 256.73 204.27 255.27 205.72" fill="#8b3315"/><path d="M262.58,217c2,5.27,6.36,6.8,7.86,11.63s5.15,6.39,6.49,7.94.55,3.16,1.19,3.19,1.22-1.85-.22-4.27-3.7-2.37-5.6-8.23-5.23-6-6.69-11.49Z" fill="#ffbd46"/><path d="M278.1,239.91c-.38,0-.4-.41-.43-.85a3.69,3.69,0,0,0-.85-2.38,11.53,11.53,0,0,0-1.47-1.29,13.2,13.2,0,0,1-5-6.69,14.39,14.39,0,0,0-3.75-5.63,17.57,17.57,0,0,1-4.11-6l.24-.09a17.29,17.29,0,0,0,4.05,5.91,14.6,14.6,0,0,1,3.8,5.73,13,13,0,0,0,5,6.56,11.72,11.72,0,0,1,1.5,1.33,4,4,0,0,1,.91,2.52c0,.48.06.61.19.62.65-.78.75-2.25-.34-4.08a8.42,8.42,0,0,0-1.68-1.91,12.48,12.48,0,0,1-3.93-6.34,15.17,15.17,0,0,0-3.46-5.84,12.91,12.91,0,0,1-3.23-5.66,16,16,0,0,0,3.42,5.5,15.52,15.52,0,0,1,3.51,5.92,12.27,12.27,0,0,0,3.85,6.24,8.53,8.53,0,0,1,1.73,2c1.08,1.8,1.09,3.39.65,4.11l-.54.35Z" fill="#8b3315"/><path d="M264,217.47c2.32,4.89,6.07,5.93,7.4,10.72-.26-4.1-4.38-5.67-6.42-11.05Z" fill="#8b3315"/><path d="M254.12,204.21l-14.18,38.2s-.29.72.19.91.76-.52.76-.52l17-37Z" fill="#ffbd46"/><path d="M240.49,243.44c-.88-.2-.78-.79-.66-1.08L254,204.17l.24.09-14.18,38.2s-.24.6.11.75l.6-.45,17-37L241,242.85a1.18,1.18,0,0,1-.51.59Z" fill="#8b3315"/><polygon points="255.06 204.59 245.31 230.82 256.93 205.38 255.06 204.59" fill="#8b3315"/><path d="M247.41,215.68c-4.12,3.84-3.87,8.47-7.74,11.7s-3.93,7.21-4.87,9-2.7,1.71-2.49,2.32,2.2.39,3.86-1.85.79-4.33,5.48-8.33,3.58-7.12,8-10.58Z" fill="#ffbd46"/><path d="M232.95,239.16l-.2,0-.55-.36c-.12-.36.23-.53.64-.73a3.68,3.68,0,0,0,1.86-1.69,11.39,11.39,0,0,0,.67-1.9,13.19,13.19,0,0,1,4.24-7.18,14.46,14.46,0,0,0,3.75-5.6,17.64,17.64,0,0,1,4-6.1l.17.19a17.44,17.44,0,0,0-3.93,6,14.61,14.61,0,0,1-3.82,5.69,13,13,0,0,0-4.16,7.06,11.78,11.78,0,0,1-.68,1.95,3.94,3.94,0,0,1-2,1.8c-.4.2-.55.29-.5.42,1,.29,2.39-.19,3.64-1.89a8.28,8.28,0,0,0,1.13-2.3,12.64,12.64,0,0,1,4.36-6.06,15.33,15.33,0,0,0,4.08-5.43,13,13,0,0,1,4-5.15,16.24,16.24,0,0,0-3.75,5.26,15.49,15.49,0,0,1-4.13,5.51,12.36,12.36,0,0,0-4.3,6,8.6,8.6,0,0,1-1.16,2.36,4.75,4.75,0,0,1-3.33,2.2Z" fill="#8b3315"/><path d="M247.52,217.12c-3.64,4-3.17,7.88-7.08,10.93,3.7-1.81,3.58-6.21,7.78-10.14Z" fill="#8b3315"/><path d="M257.88,205.77l14.18-38.21s.29-.69-.18-.88-.77.5-.77.5l-17,37Z" fill="#ffbd46"/><path d="M258,205.82l-.24-.09,14.18-38.21s.24-.58-.11-.72l-.61.44-17,37L271,167.13a1.15,1.15,0,0,1,.5-.57l.72.29a1.14,1.14,0,0,1,0,.75L258,205.82Z" fill="#8b3315"/><polygon points="256.93 205.38 266.69 179.16 255.06 204.59 256.93 205.38" fill="#8b3315"/><path d="M264.59,194.31c4.12-3.83,3.87-8.47,7.74-11.7s3.93-7.21,4.87-9,2.69-1.71,2.49-2.32-2.2-.41-3.86,1.85-.78,4.34-5.48,8.33-3.58,7.13-8,10.56Z" fill="#ffbd46"/><path d="M264.68,194.4l-.17-.19a17.46,17.46,0,0,0,3.93-6,14.64,14.64,0,0,1,3.82-5.69,13,13,0,0,0,4.17-7.07,11.56,11.56,0,0,1,.67-1.94,3.88,3.88,0,0,1,2-1.8c.4-.2.55-.28.5-.42-1-.29-2.4.2-3.64,1.89a8.25,8.25,0,0,0-1.13,2.3,12.49,12.49,0,0,1-4.36,6.06,15.22,15.22,0,0,0-4.06,5.42,13,13,0,0,1-4,5.14,16.1,16.1,0,0,0,3.76-5.26,15.47,15.47,0,0,1,4.12-5.5,12.32,12.32,0,0,0,4.3-6,8.57,8.57,0,0,1,1.16-2.36c1.23-1.67,2.67-2.32,3.53-2.18l.55.36c.12.36-.23.53-.63.72a3.64,3.64,0,0,0-1.86,1.69,10.83,10.83,0,0,0-.66,1.9,13.15,13.15,0,0,1-4.25,7.19,14.49,14.49,0,0,0-3.75,5.6,17.63,17.63,0,0,1-4,6.1Z" fill="#8b3315"/><path d="M264.5,192.86c3.64-4,3.17-7.88,7.07-10.95-3.71,1.83-3.58,6.22-7.78,10.16Z" fill="#8b3315"/><path d="M256.77,203.1l-38.19-14.16s-.7-.29-.91.17.51.77.51.77l37,17Z" fill="#ffbd46"/><path d="M255.28,206.77,218.13,190c-.28-.12-.76-.47-.57-.93s.79-.36,1.07-.24L256.81,203l-.08.23-38.19-14.16s-.6-.24-.75.11.44.6.44.61l37,17Z" fill="#8b3315"/><polygon points="256.38 204.06 230.19 194.29 255.62 205.94 256.38 204.06" fill="#8b3315"/><path d="M245.33,196.4c-3.85-4.13-8.48-3.88-11.73-7.74s-7.18-3.95-9-4.86-1.71-2.7-2.32-2.5-.4,2.19,1.88,3.88,4.32.77,8.31,5.46,7.14,3.57,10.58,8Z" fill="#ffbd46"/><path d="M243.11,198.62a16.1,16.1,0,0,0-5.27-3.77,15.4,15.4,0,0,1-5.51-4.12,12.27,12.27,0,0,0-6-4.29,8.35,8.35,0,0,1-2.33-1.15c-1.69-1.26-2.33-2.73-2.21-3.57l.36-.53c.34-.14.53.23.73.64a3.66,3.66,0,0,0,1.68,1.87,12.05,12.05,0,0,0,1.84.63,13.2,13.2,0,0,1,7.24,4.26,14.53,14.53,0,0,0,5.6,3.74,17.61,17.61,0,0,1,6.12,4l-.18.17a17.47,17.47,0,0,0-6.05-3.94,14.74,14.74,0,0,1-5.69-3.8,13,13,0,0,0-7.11-4.19,11.83,11.83,0,0,1-1.88-.64,3.9,3.9,0,0,1-1.8-2c-.19-.4-.26-.58-.43-.51-.28,1,.19,2.38,1.91,3.65a8.31,8.31,0,0,0,2.27,1.12,12.48,12.48,0,0,1,6.06,4.37,15.17,15.17,0,0,0,5.43,4.05,13,13,0,0,1,5.16,4Z" fill="#8b3315"/><path d="M243.87,196.5c-4-3.62-7.89-3.16-10.93-7.07,1.82,3.69,6.2,3.57,10.15,7.77Z" fill="#8b3315"/><path d="M255.23,206.88,293.43,221s.7.29.91-.18-.52-.76-.52-.76l-37-17Z" fill="#ffbd46"/><path d="M293.86,221.25a1.3,1.3,0,0,1-.48-.1L255.19,207l.08-.23,38.2,14.16s.59.23.75-.11-.45-.59-.45-.6l-37-17L293.87,220c.29.13.76.46.58.92a.59.59,0,0,1-.59.35Z" fill="#8b3315"/><polygon points="255.62 205.94 281.82 215.69 256.38 204.06 255.62 205.94" fill="#8b3315"/><path d="M266.67,213.58c3.85,4.13,8.47,3.86,11.73,7.74s7.19,3.93,9,4.86,1.71,2.71,2.33,2.49.39-2.19-1.87-3.86-4.32-.76-8.32-5.45-7.13-3.58-10.57-8.06Z" fill="#ffbd46"/><path d="M289.65,228.82c-.26,0-.41-.31-.59-.66a3.73,3.73,0,0,0-1.69-1.86,11.3,11.3,0,0,0-1.86-.64,13.21,13.21,0,0,1-7.21-4.25,14.44,14.44,0,0,0-5.61-3.75,17.57,17.57,0,0,1-6.11-4l.18-.17a17.42,17.42,0,0,0,6,3.93,14.63,14.63,0,0,1,5.7,3.81,13,13,0,0,0,7.08,4.17,11.71,11.71,0,0,1,1.91.66,3.93,3.93,0,0,1,1.8,2c.22.44.3.55.43.5.29-1-.18-2.37-1.9-3.64a8.22,8.22,0,0,0-2.28-1.11,12.45,12.45,0,0,1-6.06-4.36,15.15,15.15,0,0,0-5.43-4.07,13,13,0,0,1-5.15-4,16.06,16.06,0,0,0,5.27,3.77,15.38,15.38,0,0,1,5.51,4.14,12.23,12.23,0,0,0,6,4.29,8.36,8.36,0,0,1,2.34,1.15c1.82,1.34,2.3,2.87,2.19,3.57l-.35.51-.15,0Z" fill="#8b3315"/><path d="M268.13,213.48c4,3.62,7.88,3.15,10.93,7.07-1.81-3.68-6.19-3.57-10.14-7.77Z" fill="#8b3315"/><path d="M255.23,203.1l-37,17s-.7.29-.51.76.91.18.91.18l38.19-14.16Z" fill="#ffbd46"/><path d="M218.15,221.26a.59.59,0,0,1-.59-.35c-.19-.46.29-.8.58-.92l37-17,.11.23-37,17s-.59.25-.45.6.73.12.75.12l38.19-14.16-38.1,14.39a1.26,1.26,0,0,1-.47.1Z" fill="#8b3315"/><polygon points="255.62 204.06 230.19 215.69 256.38 205.94 255.62 204.06" fill="#8b3315"/><path d="M242.37,206.47c-5.62-.21-8.73,3.25-13.75,2.8s-7.88,2.32-9.83,3-3.13-.69-3.4-.11,1.26,1.84,4.06,1.42,3.59-2.51,9.73-2,7.57-2.51,13.19-1.78Z" fill="#ffbd46"/><path d="M218.38,213.74a3.8,3.8,0,0,1-3-1.07l-.11-.62c.16-.33.52-.22,1-.07a3.73,3.73,0,0,0,2.52.12,11.32,11.32,0,0,0,1.79-.87,13.32,13.32,0,0,1,8.1-2.09,14.06,14.06,0,0,0,6.61-1.3,17.32,17.32,0,0,1,7.14-1.49v.25a17.8,17.8,0,0,0-7,1.48,15,15,0,0,1-6.71,1.32,13.22,13.22,0,0,0-8,2.06,11.85,11.85,0,0,1-1.83.89,3.91,3.91,0,0,1-2.67-.12c-.46-.16-.6-.18-.65-.06.47.89,1.8,1.55,3.93,1.24a8.32,8.32,0,0,0,2.4-.82c1.53-.71,3.23-1.53,7.36-1.2a15,15,0,0,0,6.71-1,13,13,0,0,1,6.49-.82,15,15,0,0,0-6.41,1.06,15.64,15.64,0,0,1-6.82,1,12.18,12.18,0,0,0-7.22,1.17,8.34,8.34,0,0,1-2.47.84,7.19,7.19,0,0,1-1.09.09Z" fill="#8b3315"/><path d="M241.43,207.56c-5.42.28-7.8,3.34-12.74,2.74,3.91,1.33,6.91-1.85,12.68-1.67Z" fill="#8b3315"/><path d="M256.77,206.88l37-17s.7-.29.52-.77-.91-.17-.91-.17l-38.2,14.16Z" fill="#ffbd46"/><path d="M256.83,207l-.11-.23,37-17s.59-.26.45-.61-.73-.11-.74-.1l-38.2,14.16,38.11-14.4c.28-.12.87-.22,1.06.24s-.3.82-.58.94l-37,17Z" fill="#8b3315"/><polygon points="256.38 205.94 281.82 194.29 255.62 204.06 256.38 205.94" fill="#8b3315"/><path d="M269.64,203.51c5.62.21,8.72-3.26,13.75-2.79s7.88-2.32,9.84-3,3.13.7,3.39.13-1.26-1.84-4.05-1.43-3.6,2.53-9.74,2-7.57,2.5-13.19,1.77Z" fill="#ffbd46"/><path d="M270.13,203.65h-.5v-.25a17.69,17.69,0,0,0,7-1.48,14.89,14.89,0,0,1,6.73-1.32,13,13,0,0,0,8-2.07,11.82,11.82,0,0,1,1.82-.89,3.91,3.91,0,0,1,2.67.13c.44.15.58.19.64.06-.46-.9-1.78-1.55-3.92-1.26a8.33,8.33,0,0,0-2.4.83,12.51,12.51,0,0,1-7.37,1.21,15.38,15.38,0,0,0-6.7,1,13,13,0,0,1-6.49.81,15.88,15.88,0,0,0,6.41-1,15.77,15.77,0,0,1,6.8-1,12.4,12.4,0,0,0,7.24-1.18,8.52,8.52,0,0,1,2.47-.85c2.09-.32,3.57.29,4.07,1l.11.63c-.17.34-.53.22-.95.07a3.7,3.7,0,0,0-2.52-.13,11.47,11.47,0,0,0-1.77.87,13.31,13.31,0,0,1-8.11,2.1,14.28,14.28,0,0,0-6.62,1.3,18.16,18.16,0,0,1-6.62,1.5Z" fill="#8b3315"/><path d="M270.58,202.41c5.41-.27,7.8-3.33,12.73-2.74-3.9-1.31-6.91,1.88-12.67,1.7Z" fill="#8b3315"/><path d="M257.88,204.21l-17-37s-.29-.7-.76-.5-.19.88-.19.88l14.18,38.21Z" fill="#ffbd46"/><path d="M254.24,205.73l-14.42-38.12a1.18,1.18,0,0,1,0-.75l.72-.3a1.16,1.16,0,0,1,.51.58l17,37-.23.1-17.32-37.59-.27.12-.11.72,14.18,38.21Z" fill="#8b3315"/><polygon points="256.93 204.59 245.31 179.16 255.06 205.38 256.93 204.59" fill="#8b3315"/><path d="M254.54,191.37c.2-5.63-3.28-8.74-2.83-13.77s-2.31-7.87-2.94-9.82.7-3.13.13-3.41-1.83,1.26-1.42,4,2.51,3.61,2,9.76,2.51,7.57,1.79,13.16Z" fill="#ffbd46"/><path d="M254.66,191.38h-.25a17.41,17.41,0,0,0-1.49-7,14.57,14.57,0,0,1-1.33-6.73,12.94,12.94,0,0,0-2.06-7.94,11.76,11.76,0,0,1-.88-1.82,3.94,3.94,0,0,1,.13-2.67c.14-.43.19-.6.06-.67-.9.49-1.55,1.83-1.24,3.92a8.27,8.27,0,0,0,.82,2.42,12.59,12.59,0,0,1,1.19,7.37,15.26,15.26,0,0,0,1,6.71,13,13,0,0,1,.82,6.46,16.23,16.23,0,0,0-1.06-6.38,15.54,15.54,0,0,1-1-6.8,12.33,12.33,0,0,0-1.17-7.25,8.72,8.72,0,0,1-.85-2.49c-.31-2.06.28-3.54,1-4l.64-.13c.34.17.22.54.07,1a3.74,3.74,0,0,0-.13,2.52,11.17,11.17,0,0,0,.87,1.78,13.19,13.19,0,0,1,2.09,8.09,14.41,14.41,0,0,0,1.32,6.62,17.69,17.69,0,0,1,1.51,7.14Z" fill="#8b3315"/><path d="M253.42,190.4c-.28-5.41-3.34-7.8-2.72-12.73-1.35,3.9,1.85,6.92,1.66,12.69Z" fill="#8b3315"/><path d="M254.12,205.77l17,37s.29.72.77.52.18-.91.18-.91l-14.18-38.2Z" fill="#ffbd46"/><path d="M271.93,243.44c-.75-.14-.93-.57-.93-.59l-17-37,.23-.1,17,37s.29.62.61.45.11-.74.11-.75l-14.19-38.2,14.42,38.11c.11.28.21.88-.25,1.07Z" fill="#8b3315"/><polygon points="255.06 205.38 266.69 230.82 256.93 204.59 255.06 205.38" fill="#8b3315"/><path d="M257.48,218.61c-.21,5.63,3.27,8.74,2.82,13.75s2.3,7.88,2.94,9.85-.7,3.1-.13,3.4,1.83-1.28,1.43-4.06-2.52-3.6-2-9.74-2.51-7.57-1.78-13.18Z" fill="#ffbd46"/><path d="M263.05,245.72c-.34-.17-.22-.54-.07-1a3.65,3.65,0,0,0,.13-2.51,11.17,11.17,0,0,0-.87-1.79,13.33,13.33,0,0,1-2.08-8.1,14.38,14.38,0,0,0-1.31-6.6,17.5,17.5,0,0,1-1.51-7.15h.25a17.25,17.25,0,0,0,1.49,7.05,14.55,14.55,0,0,1,1.33,6.71,13.09,13.09,0,0,0,2.05,8,11.84,11.84,0,0,1,.88,1.84,3.84,3.84,0,0,1-.13,2.67c-.15.44-.19.59-.06.66.9-.48,1.56-1.81,1.25-3.93a8.35,8.35,0,0,0-.82-2.39,12.47,12.47,0,0,1-1.2-7.38,15.22,15.22,0,0,0-1-6.71,13,13,0,0,1-.82-6.47,16.25,16.25,0,0,0,1.06,6.39,15.52,15.52,0,0,1,1,6.81,12.27,12.27,0,0,0,1.18,7.25,8.56,8.56,0,0,1,.85,2.46c.3,2.08-.3,3.57-1,4.07l-.63.12Z" fill="#8b3315"/><path d="M258.59,219.57c.26,5.41,3.34,7.81,2.74,12.74,1.31-3.91-1.88-6.92-1.7-12.67Z" fill="#8b3315"/><path d="M256,188.41A16.59,16.59,0,1,1,239.4,205,16.58,16.58,0,0,1,256,188.41Z" fill="#ffbd46"/><path d="M256,221.72A16.72,16.72,0,1,1,272.72,205,16.75,16.75,0,0,1,256,221.72Zm0-33.18A16.46,16.46,0,1,0,272.47,205,16.48,16.48,0,0,0,256,188.54Z" fill="#8b3315"/><path d="M266.47,201.42c-2.95-2.54-6.62-2.94-8.68-1-1.48,2-1.35,4.31.38,6.76a1,1,0,0,0-.51.25,8.76,8.76,0,0,1-.64-7.28c2.83-2.29,6.65-2.54,9.45,1.28Z" fill="#8b3315"/><path d="M261.88,200.64a3.46,3.46,0,0,0-2.83,1c-.76.65-1.13.51-1.27.65s0,.51.26.38a8.16,8.16,0,0,0,1.53-1,3.21,3.21,0,0,1,2.3-.63c2.28,0,3.55,1.91,3.83,1.79s-1.28-2.18-3.83-2.18Z" fill="#8b3315"/><path d="M264.8,202.82c-1.65-1.79-4.71-1.91-6,.13h.51c1.28-2,4.35-1.15,4.6-.25v.25Z" fill="#8b3315"/><path d="M261.61,201.54a1.15,1.15,0,1,1-1.14,1.15,1.16,1.16,0,0,1,1.14-1.15Z" fill="#8b3315"/><path d="M258.81,202.95c1.28,1.15,4.08,1.28,6-.13l-.88-.13a3.37,3.37,0,0,1-4.6.25v-.25Z" fill="#8b3315"/><path d="M264.94,203.45c-2.18,1.67-4.34,1.53-5.62.77s-1.27-1-1-1,.51.24,1.54.76,2.55.5,5.1-.52Z" fill="#8b3315"/><path d="M258.69,207.29a.77.77,0,1,1-1,.77,1.87,1.87,0,0,1-1.65,1h-.26l.26.38a2.72,2.72,0,0,0,1.53-.38,1.16,1.16,0,0,0,1.6.29,1.19,1.19,0,0,0,.29-1.62,1.25,1.25,0,0,0-.74-.46Z" fill="#8b3315"/><path d="M260.21,212.64c-1.15-.76-1.65-1.91-2.92-1.91a3.33,3.33,0,0,0-1.27.39h-.26l.26.38c.49,0,1.27-.63,2.16-.14a18.57,18.57,0,0,0,2,1.28Z" fill="#8b3315"/><path d="M259.84,212.64a6.79,6.79,0,0,0-3.83-.24h-.26l.26.51c1,0,1.53-.77,3.83-.27Z" fill="#8b3315"/><path d="M260.21,212.64c-2.8-.24-1.91,1.42-4.2,1.42h-.26l.26.38c2.8,0,1.53-1.53,4.2-1.8Z" fill="#8b3315"/><path d="M258.3,216.73a2.29,2.29,0,0,0-4.59,0,2.36,2.36,0,0,1,4.59,0Z" fill="#8b3315"/><path d="M245.54,201.42c2.94-2.54,6.63-2.94,8.69-1,1.48,2,1.33,4.31-.39,6.76a1,1,0,0,1,.51.25,8.76,8.76,0,0,0,.64-7.28c-2.81-2.29-6.64-2.54-9.44,1.28Z" fill="#8b3315"/><path d="M250.13,200.64a3.43,3.43,0,0,1,2.81,1,3.35,3.35,0,0,0,1.28.65c.12.13,0,.51-.26.38a7.76,7.76,0,0,1-1.53-1,3.23,3.23,0,0,0-2.3-.63c-2.28,0-3.56,1.91-3.83,1.79s1.28-2.18,3.83-2.18Z" fill="#8b3315"/><path d="M247.21,202.82c1.64-1.79,4.71-1.91,6,.13h-.51c-1.28-2-4.34-1.15-4.59-.25v.25Z" fill="#8b3315"/><path d="M250.39,201.54a1.15,1.15,0,1,0,1.13,1.15,1.15,1.15,0,0,0-1.13-1.15Z" fill="#8b3315"/><path d="M253.19,202.95c-1.27,1.15-4.07,1.28-6-.13l.88-.13a3.35,3.35,0,0,0,4.59.25v-.25Z" fill="#8b3315"/><path d="M247.06,203.45c2.19,1.67,4.34,1.53,5.62.77s1.28-1,1-1-.52.24-1.54.76-2.55.5-5.11-.52Z" fill="#8b3315"/><path d="M253.32,207.29a.77.77,0,1,0,1,.77,1.89,1.89,0,0,0,1.67,1h.25l-.25.38a2.72,2.72,0,0,1-1.54-.38,1.17,1.17,0,0,1-1.61.29,1.19,1.19,0,0,1-.28-1.62,1.27,1.27,0,0,1,.74-.46Z" fill="#8b3315"/><path d="M251.8,212.64c1.15-.76,1.64-1.91,2.92-1.91a3.57,3.57,0,0,1,1.3.39h.25l-.25.38c-.52,0-1.3-.63-2.18-.14a18.58,18.58,0,0,1-2,1.28Z" fill="#8b3315"/><path d="M252.17,212.64a6.87,6.87,0,0,1,3.85-.24h.25l-.25.51c-1,0-1.54-.77-3.85-.27Z" fill="#8b3315"/><path d="M251.8,212.64c2.8-.24,1.92,1.42,4.22,1.42h.25l-.25.38c-2.83,0-1.54-1.53-4.22-1.8Z" fill="#8b3315"/><path d="M253.71,216.73a2.29,2.29,0,0,1,4.59,0,2.36,2.36,0,0,0-4.59,0Z" fill="#8b3315"/></g></g><text transform="translate(131.93 435.97)" font-size="50" font-family="Montserrat-Regular, Montserrat">Argentina</text></svg>